<svg width="70" height="70" viewBox="0 0 70 70" fill="none" xmlns="http://www.w3.org/2000/svg">
<g clip-path="url(#clip0_2_84)">
<rect width="70" height="70" rx="10" fill="white"/>
<rect width="100" height="100" fill="black"/>
<path d="M19.2373 35.595C18.9106 35.595 18.6423 35.4667 18.4323 35.21C17.8256 32.69 16.9973 28.1283 15.9473 21.525C14.7806 14.4783 14.069 10.29 13.8123 8.96C13.9056 8.51667 14.2206 8.295 14.7573 8.295C15.154 8.295 15.644 9.78833 16.2273 12.775C16.834 15.785 17.429 19.1917 18.0123 22.995L18.9573 29.19C19.3306 26.39 19.6223 24.29 19.8323 22.89C20.2756 19.67 20.6023 17.01 20.8123 14.91C21.0223 12.7867 21.1273 10.78 21.1273 8.89C21.4773 8.42333 21.8973 8.19 22.3873 8.19L23.1223 8.575L22.5973 13.3C22.4806 14.7467 22.189 17.3717 21.7223 21.175L21.4073 23.485C21.1506 25.5383 20.894 27.475 20.6373 29.295C20.2873 31.9317 19.9606 33.7633 19.6573 34.79C19.5173 35.3267 19.3773 35.595 19.2373 35.595ZM29.6536 34.965C27.647 34.965 26.6436 34.615 26.6436 33.915C26.6436 33.355 26.9936 33.075 27.6936 33.075H28.1136C28.207 33.0983 28.312 33.11 28.4286 33.11C28.6153 33.11 28.7436 33.0517 28.8136 32.935C28.907 32.8183 28.9536 32.6083 28.9536 32.305C28.9536 30.3217 28.837 27.615 28.6036 24.185C28.3936 20.615 28.2886 17.92 28.2886 16.1C28.2886 15.4467 28.3003 14.8517 28.3236 14.315L28.3586 12.53C28.3586 11.76 28.3236 11.1183 28.2536 10.605C27.997 10.6983 27.7286 10.745 27.4486 10.745C26.912 10.745 26.6436 10.465 26.6436 9.905C26.6436 9.625 26.807 9.38 27.1336 9.17C27.4836 8.96 27.927 8.80833 28.4636 8.715C29.4436 8.55167 30.272 8.47 30.9486 8.47C31.2286 8.47 31.462 8.56333 31.6486 8.75C31.8586 8.93666 31.9636 9.15833 31.9636 9.415C31.9636 9.67167 31.882 9.89333 31.7186 10.08C31.5786 10.2667 31.392 10.36 31.1586 10.36C31.0186 10.36 30.902 10.3483 30.8086 10.325H30.5286C30.2953 10.325 30.1203 10.3833 30.0036 10.5C29.9103 10.5933 29.8636 10.78 29.8636 11.06C29.8636 13.5333 30.0153 16.94 30.3186 21.28C30.5986 25.83 30.7386 29.2483 30.7386 31.535V32.865C30.902 32.8417 31.1353 32.83 31.4386 32.83C32.4186 32.83 32.9086 33.2383 32.9086 34.055V34.265L32.0336 34.86C32.0103 34.86 31.9403 34.8717 31.8236 34.895C31.707 34.895 31.4736 34.895 31.1236 34.895C30.3303 34.9417 29.8403 34.965 29.6536 34.965ZM45.0829 35.525C44.6162 35.525 43.6596 33.1217 42.2129 28.315C40.5796 22.6917 39.1679 17.5233 37.9779 12.81V24.29C37.9779 25.27 38.0712 26.9383 38.2579 29.295C38.4212 31.8617 38.5029 33.5183 38.5029 34.265C38.5029 34.475 38.3746 34.6617 38.1179 34.825C37.8612 34.965 37.5696 35.035 37.2429 35.035C36.7529 35.035 36.5079 34.8483 36.5079 34.475L36.5779 33.46C36.6246 32.7133 36.6479 32.2233 36.6479 31.99C36.6479 30.7533 36.5779 28.7933 36.4379 26.11C36.2979 23.38 36.2279 21.7233 36.2279 21.14V16.66C36.2279 15.9367 36.2629 14.8633 36.3329 13.44C36.4262 12.2033 36.4729 11.13 36.4729 10.22V10.01C36.4729 8.84333 36.7296 8.26 37.2429 8.26C37.5462 8.26 37.9312 8.77333 38.3979 9.8C39.1679 11.48 40.1479 14.49 41.3379 18.83C42.0146 21.35 42.8079 24.5933 43.7179 28.56C43.6946 28.4667 43.8812 29.2717 44.2779 30.975L44.3129 31.15C44.3129 28.8867 44.3362 26.8567 44.3829 25.06L44.4529 18.97V8.61C44.5462 8.02667 44.9196 7.735 45.5729 7.735C46.2029 7.735 46.5179 8.19 46.5179 9.1V9.31C46.3779 9.59 46.3079 9.92833 46.3079 10.325C46.3079 11.7483 46.2729 13.895 46.2029 16.765C46.1329 19.6583 46.0979 21.8283 46.0979 23.275V33.95C46.0979 34.3233 45.9929 34.6733 45.7829 35C45.5962 35.35 45.3629 35.525 45.0829 35.525ZM50.6167 35.315C50.1967 35.315 49.8584 35.035 49.6017 34.475C50.1151 33.6817 50.6984 31.57 51.3517 28.14C52.0284 24.6867 52.6001 21.1167 53.0667 17.43C53.5334 13.8133 53.7901 11.41 53.8367 10.22L52.5767 10.325C52.4134 10.3483 52.1684 10.36 51.8417 10.36C50.5817 10.36 49.9517 9.99833 49.9517 9.275V9.1L50.4067 8.54V8.505C50.6867 8.59833 51.0251 8.645 51.4217 8.645C51.7951 8.645 52.3434 8.575 53.0667 8.435C53.8834 8.31833 54.4317 8.26 54.7117 8.26C54.9917 8.26 55.2134 8.365 55.3767 8.575C55.5634 8.76167 55.6567 8.995 55.6567 9.275C55.6567 15.4117 54.3617 23.4967 51.7717 33.53L52.5417 33.495C52.8451 33.4483 53.2067 33.425 53.6267 33.425C54.8634 33.425 55.4817 33.775 55.4817 34.475V34.65L54.9217 35.175L52.7867 35.245C52.1334 35.2917 51.4101 35.315 50.6167 35.315Z" fill="white"/>
<path d="M18.2506 62.895C15.4273 62.895 14.0156 56.3383 14.0156 43.225V42.105C14.0156 40.355 14.2139 38.99 14.6106 38.01C14.7973 37.45 15.0889 37.03 15.4856 36.75C15.9056 36.4467 16.4073 36.295 16.9906 36.295C20.3273 36.295 21.9956 42.2333 21.9956 54.11C21.9956 59.9667 20.7473 62.895 18.2506 62.895ZM18.5656 61.285C18.9389 61.285 19.2423 60.935 19.4756 60.235C19.8723 59.2083 20.1523 57.4933 20.3156 55.09C20.3623 54.5767 20.3856 53.9817 20.3856 53.305C20.3856 51.7417 20.3156 49.665 20.1756 47.075C20.0123 44.625 19.6506 42.4083 19.0906 40.425C18.8339 39.4217 18.4839 38.6283 18.0406 38.045C17.6206 37.4617 17.1423 37.135 16.6056 37.065C16.2556 37.345 16.0106 37.6367 15.8706 37.94C15.7539 38.2433 15.6956 38.6517 15.6956 39.165C15.6956 40.4483 15.7189 41.5917 15.7656 42.595L15.8356 46.095C15.8356 46.3983 15.8939 46.9583 16.0106 47.775C16.1273 48.6383 16.1856 49.21 16.1856 49.49C16.1856 50.05 16.2206 51.3333 16.2906 53.34C16.3839 55.2533 16.6056 57.015 16.9556 58.625C17.1189 59.4417 17.3406 60.095 17.6206 60.585C17.9006 61.0517 18.2156 61.285 18.5656 61.285ZM29.3207 64.4C28.8074 64.4 28.3524 64.2367 27.9557 63.91C27.5824 63.5833 27.2907 63.1517 27.0807 62.615C26.7307 61.6817 26.5557 60.6783 26.5557 59.605C26.5557 58.205 26.824 56.245 27.3607 53.725C27.8974 51.2517 28.1657 49.4317 28.1657 48.265C28.1657 47.635 28.049 46.9 27.8157 46.06C27.5824 45.22 27.3024 44.4033 26.9757 43.61C26.649 42.7933 26.369 41.9533 26.1357 41.09C25.9024 40.2033 25.7857 39.41 25.7857 38.71C25.7857 37.8 25.9957 37.0417 26.4157 36.435C26.8357 35.8283 27.4307 35.525 28.2007 35.525H28.9357C29.6824 36.015 30.184 36.4583 30.4407 36.855C30.6274 37.135 30.7674 37.38 30.8607 37.59C30.954 37.7767 31.0124 38.045 31.0357 38.395C31.0824 38.8617 31.1057 39.585 31.1057 40.565C31.1057 41.3117 31.0824 41.895 31.0357 42.315L30.9307 43.12C30.9074 43.4467 30.814 44.0183 30.6507 44.835C30.5574 45.255 30.5107 45.5 30.5107 45.57C30.4874 45.6867 30.4174 46.0133 30.3007 46.55L30.0907 47.46L29.8807 48.265C30.6974 50.1317 31.3624 52.2433 31.8757 54.6C32.389 56.9567 32.6457 59.08 32.6457 60.97C32.6457 61.0633 32.6574 61.145 32.6807 61.215V61.46L32.6457 61.81L32.6107 61.95V61.985C31.9107 63.595 30.814 64.4 29.3207 64.4ZM28.7957 45.78C29.309 44.03 29.5657 42.2917 29.5657 40.565C29.5657 39.9583 29.4724 39.235 29.2857 38.395C29.1224 37.5317 28.924 37.1 28.6907 37.1H27.9557C27.629 37.4733 27.4657 38.0567 27.4657 38.85C27.4657 39.5733 27.6057 40.6817 27.8857 42.175C28.189 43.645 28.4924 44.8467 28.7957 45.78ZM29.3557 62.895C29.939 62.895 30.359 62.6967 30.6157 62.3C30.8957 61.88 31.0357 61.32 31.0357 60.62C31.0357 59.1033 30.884 57.5633 30.5807 56C30.2774 54.4133 29.799 52.4767 29.1457 50.19C28.819 51.2633 28.574 52.6867 28.4107 54.46C28.2474 56.21 28.1657 57.9717 28.1657 59.745V59.78C28.1657 60.3867 28.3174 60.9933 28.6207 61.6V61.775C28.644 62.055 28.7257 62.3117 28.8657 62.545C29.0057 62.7783 29.169 62.895 29.3557 62.895ZM40.5016 62.895C37.6782 62.895 36.2666 56.3383 36.2666 43.225V42.105C36.2666 40.355 36.4649 38.99 36.8616 38.01C37.0482 37.45 37.3399 37.03 37.7366 36.75C38.1566 36.4467 38.6582 36.295 39.2416 36.295C42.5782 36.295 44.2466 42.2333 44.2466 54.11C44.2466 59.9667 42.9982 62.895 40.5016 62.895ZM40.8166 61.285C41.1899 61.285 41.4932 60.935 41.7266 60.235C42.1232 59.2083 42.4032 57.4933 42.5666 55.09C42.6132 54.5767 42.6366 53.9817 42.6366 53.305C42.6366 51.7417 42.5666 49.665 42.4266 47.075C42.2632 44.625 41.9016 42.4083 41.3416 40.425C41.0849 39.4217 40.7349 38.6283 40.2916 38.045C39.8716 37.4617 39.3932 37.135 38.8566 37.065C38.5066 37.345 38.2616 37.6367 38.1216 37.94C38.0049 38.2433 37.9466 38.6517 37.9466 39.165C37.9466 40.4483 37.9699 41.5917 38.0166 42.595L38.0866 46.095C38.0866 46.3983 38.1449 46.9583 38.2616 47.775C38.3782 48.6383 38.4366 49.21 38.4366 49.49C38.4366 50.05 38.4716 51.3333 38.5416 53.34C38.6349 55.2533 38.8566 57.015 39.2066 58.625C39.3699 59.4417 39.5916 60.095 39.8716 60.585C40.1516 61.0517 40.4666 61.285 40.8166 61.285ZM52.0617 63.63C50.8017 63.63 50.1717 63.3033 50.1717 62.65C50.1717 62.3933 50.2767 62.195 50.4867 62.055C50.6967 61.915 50.9417 61.845 51.2217 61.845C51.595 61.845 51.8983 61.95 52.1317 62.16C52.645 61.9733 53.0767 61.3667 53.4267 60.34C53.7767 59.29 53.9517 58.31 53.9517 57.4C53.9517 56.2333 53.94 55.2417 53.9167 54.425C53.8467 53.375 53.73 52.43 53.5667 51.59C53.4733 51.1 53.3683 50.6917 53.2517 50.365C53.135 50.0383 52.96 49.6767 52.7267 49.28C52.4 48.6967 51.8633 48.2533 51.1167 47.95C50.72 47.8333 50.335 47.775 49.9617 47.775C49.425 47.775 49.0633 47.5533 48.8767 47.11C48.76 46.76 48.7017 46.3167 48.7017 45.78C48.7017 45.5933 48.7367 45.29 48.8067 44.87L48.8767 43.995C48.8767 42.9217 48.8183 41.93 48.7017 41.02L48.2467 38.115L48.0367 36.68L48.6317 36.05H51.4667C52.4467 36.05 52.9367 36.3533 52.9367 36.96V37.135L52.2717 37.66H51.3967V37.555H49.9267C49.95 38.7217 50.1717 41.4983 50.5917 45.885L51.2917 45.955C51.805 46.0017 52.295 46.0833 52.7617 46.2C53.0183 46.27 53.24 46.375 53.4267 46.515C53.9167 46.865 54.3483 47.6467 54.7217 48.86C55.095 50.05 55.34 51.2867 55.4567 52.57C55.5733 53.8067 55.6317 54.81 55.6317 55.58C55.6317 56.6533 55.6083 57.54 55.5617 58.24C55.5383 58.73 55.4917 59.1267 55.4217 59.43C55.3517 59.71 55.235 60.095 55.0717 60.585C54.9317 60.9817 54.7567 61.3317 54.5467 61.635C54.36 61.9383 54.1033 62.265 53.7767 62.615C53.45 62.9417 53.0767 63.28 52.6567 63.63H52.4117H52.0617Z" fill="white"/>
</g>
<defs>
<clipPath id="clip0_2_84">
<rect width="70" height="70" rx="10" fill="white"/>
</clipPath>
</defs>
</svg>
